<?xml version="1.0" encoding="UTF-8" standalone="no"?>
<!DOCTYPE svg PUBLIC "-//W3C//DTD SVG 1.1//EN" "http://www.w3.org/Graphics/SVG/1.1/DTD/svg11.dtd">
<svg width="100%" height="100%" viewBox="0 0 31 33" version="1.1" xmlns="http://www.w3.org/2000/svg" xmlns:xlink="http://www.w3.org/1999/xlink" xml:space="preserve" xmlns:serif="http://www.serif.com/" style="fill-rule:evenodd;clip-rule:evenodd;stroke-miterlimit:1.5;">
    <rect id="bar-accent" x="0.614" y="0.825" width="30" height="32" style="fill:none;"/>
    <path d="M20.614,1.825L10.614,1.825C10.614,1.825 6.573,5.867 2.685,9.754C4.561,11.629 5.614,14.173 5.614,16.825C5.614,19.477 4.561,22.021 2.685,23.896C6.573,27.784 10.614,31.825 10.614,31.825L20.614,31.825C20.614,31.825 24.656,27.784 28.543,23.896C26.668,22.021 25.614,19.477 25.614,16.825C25.614,14.173 26.668,11.629 28.543,9.754C24.656,5.867 20.614,1.825 20.614,1.825Z" style="fill:#f00;"/>
    <clipPath id="_clip1">
        <path d="M20.614,1.825L10.614,1.825C10.614,1.825 6.573,5.867 2.685,9.754C4.561,11.629 5.614,14.173 5.614,16.825C5.614,19.477 4.561,22.021 2.685,23.896C6.573,27.784 10.614,31.825 10.614,31.825L20.614,31.825C20.614,31.825 24.656,27.784 28.543,23.896C26.668,22.021 25.614,19.477 25.614,16.825C25.614,14.173 26.668,11.629 28.543,9.754C24.656,5.867 20.614,1.825 20.614,1.825Z"/>
    </clipPath>
    <g clip-path="url(#_clip1)">
        <path d="M4.614,27.825L27.614,27.825" style="fill:none;stroke:#0f0;stroke-width:1px;"/>
        <path d="M3.614,5.825L27.614,5.825" style="fill:none;stroke:#0f0;stroke-width:1px;"/>
    </g>
    <path d="M20.614,1.825L28.543,9.754C26.668,11.629 25.614,14.173 25.614,16.825C25.614,19.477 26.668,22.021 28.543,23.896L20.614,31.825L10.614,31.825L2.685,23.896C4.561,22.021 5.614,19.477 5.614,16.825C5.614,14.173 4.561,11.629 2.685,9.754L10.614,1.825L20.614,1.825ZM20.15,2.945L11.078,2.945C11.078,2.945 4.229,9.794 4.229,9.794C5.842,11.77 6.734,14.252 6.734,16.825C6.734,19.399 5.842,21.88 4.229,23.856C4.229,23.856 11.078,30.705 11.078,30.705L20.15,30.705C20.15,30.705 27,23.856 27,23.856C25.387,21.88 24.495,19.399 24.495,16.825C24.495,14.252 25.387,11.77 27,9.794L20.15,2.945Z" style="fill:#0f0;"/>
</svg>
