<?xml version="1.0" encoding="UTF-8" standalone="no"?>
<!DOCTYPE svg PUBLIC "-//W3C//DTD SVG 1.1//EN" "http://www.w3.org/Graphics/SVG/1.1/DTD/svg11.dtd">
<svg width="100%" height="100%" viewBox="0 0 31 33" version="1.1" xmlns="http://www.w3.org/2000/svg" xmlns:xlink="http://www.w3.org/1999/xlink" xml:space="preserve" xmlns:serif="http://www.serif.com/" style="fill-rule:evenodd;clip-rule:evenodd;stroke-miterlimit:1.5;">
    <rect id="bar-foreground" x="0.883" y="0.825" width="30" height="32" style="fill:none;"/>
    <path d="M20.883,1.825L10.883,1.825C10.883,1.825 6.842,5.867 2.954,9.754C4.83,11.629 5.883,14.173 5.883,16.825C5.883,19.477 4.83,22.021 2.954,23.896C6.842,27.784 10.883,31.825 10.883,31.825L20.883,31.825C20.883,31.825 24.925,27.784 28.812,23.896C26.937,22.021 25.883,19.477 25.883,16.825C25.883,14.173 26.937,11.629 28.812,9.754C24.925,5.867 20.883,1.825 20.883,1.825Z" style="fill:#0f0;"/>
    <clipPath id="_clip1">
        <path d="M20.883,1.825L10.883,1.825C10.883,1.825 6.842,5.867 2.954,9.754C4.83,11.629 5.883,14.173 5.883,16.825C5.883,19.477 4.83,22.021 2.954,23.896C6.842,27.784 10.883,31.825 10.883,31.825L20.883,31.825C20.883,31.825 24.925,27.784 28.812,23.896C26.937,22.021 25.883,19.477 25.883,16.825C25.883,14.173 26.937,11.629 28.812,9.754C24.925,5.867 20.883,1.825 20.883,1.825Z"/>
    </clipPath>
    <g clip-path="url(#_clip1)">
        <path d="M4.883,27.825L27.883,27.825" style="fill:none;stroke:#f00;stroke-width:1px;"/>
        <path d="M3.883,5.825L27.883,5.825" style="fill:none;stroke:#f00;stroke-width:1px;"/>
    </g>
    <path d="M20.883,1.825L28.812,9.754C26.937,11.629 25.883,14.173 25.883,16.825C25.883,19.477 26.937,22.021 28.812,23.896L20.883,31.825L10.883,31.825L2.954,23.896C4.83,22.021 5.883,19.477 5.883,16.825C5.883,14.173 4.83,11.629 2.954,9.754L10.883,1.825L20.883,1.825ZM20.419,2.945L11.347,2.945C11.347,2.945 4.498,9.794 4.498,9.794C6.111,11.77 7.003,14.252 7.003,16.825C7.003,19.399 6.111,21.88 4.498,23.856C4.498,23.856 11.347,30.705 11.347,30.705L20.419,30.705C20.419,30.705 27.269,23.856 27.269,23.856C25.656,21.88 24.763,19.399 24.763,16.825C24.763,14.252 25.656,11.77 27.269,9.794L20.419,2.945Z" style="fill:#f00;"/>
</svg>
