<?xml version="1.0" encoding="UTF-8" standalone="no"?>
<!DOCTYPE svg PUBLIC "-//W3C//DTD SVG 1.1//EN" "http://www.w3.org/Graphics/SVG/1.1/DTD/svg11.dtd">
<svg width="100%" height="100%" viewBox="0 0 31 33" version="1.1" xmlns="http://www.w3.org/2000/svg" xmlns:xlink="http://www.w3.org/1999/xlink" xml:space="preserve" xmlns:serif="http://www.serif.com/" style="fill-rule:evenodd;clip-rule:evenodd;stroke-miterlimit:1.5;">
    <rect id="bar-background" x="0.653" y="0.825" width="30" height="32" style="fill:none;"/>
    <path d="M20.653,1.825L10.653,1.825C10.653,1.825 6.611,5.867 2.724,9.754C4.599,11.629 5.653,14.173 5.653,16.825C5.653,19.477 4.599,22.021 2.724,23.896C6.611,27.784 10.653,31.825 10.653,31.825L20.653,31.825C20.653,31.825 24.694,27.784 28.582,23.896C26.706,22.021 25.653,19.477 25.653,16.825C25.653,14.173 26.706,11.629 28.582,9.754C24.694,5.867 20.653,1.825 20.653,1.825Z" style="fill:#00f;"/>
    <clipPath id="_clip1">
        <path d="M20.653,1.825L10.653,1.825C10.653,1.825 6.611,5.867 2.724,9.754C4.599,11.629 5.653,14.173 5.653,16.825C5.653,19.477 4.599,22.021 2.724,23.896C6.611,27.784 10.653,31.825 10.653,31.825L20.653,31.825C20.653,31.825 24.694,27.784 28.582,23.896C26.706,22.021 25.653,19.477 25.653,16.825C25.653,14.173 26.706,11.629 28.582,9.754C24.694,5.867 20.653,1.825 20.653,1.825Z"/>
    </clipPath>
    <g clip-path="url(#_clip1)">
        <path d="M4.653,27.825L27.653,27.825" style="fill:none;stroke:#f00;stroke-width:1px;"/>
        <path d="M3.653,5.825L27.653,5.825" style="fill:none;stroke:#f00;stroke-width:1px;"/>
    </g>
    <path d="M20.653,1.825L28.582,9.754C26.706,11.629 25.653,14.173 25.653,16.825C25.653,19.477 26.706,22.021 28.582,23.896L20.653,31.825L10.653,31.825L2.724,23.896C4.599,22.021 5.653,19.477 5.653,16.825C5.653,14.173 4.599,11.629 2.724,9.754L10.653,1.825L20.653,1.825ZM20.189,2.945L11.116,2.945C11.116,2.945 4.267,9.794 4.267,9.794C5.88,11.77 6.772,14.252 6.772,16.825C6.772,19.399 5.88,21.88 4.267,23.856C4.267,23.856 11.116,30.705 11.116,30.705L20.189,30.705C20.189,30.705 27.038,23.856 27.038,23.856C25.425,21.88 24.533,19.399 24.533,16.825C24.533,14.252 25.425,11.77 27.038,9.794L20.189,2.945Z" style="fill:#f00;"/>
</svg>
