<?xml version="1.0" encoding="UTF-8" standalone="no"?>
<!DOCTYPE svg PUBLIC "-//W3C//DTD SVG 1.1//EN" "http://www.w3.org/Graphics/SVG/1.1/DTD/svg11.dtd">
<svg width="100%" height="100%" viewBox="0 0 61 28" version="1.1" xmlns="http://www.w3.org/2000/svg" xmlns:xlink="http://www.w3.org/1999/xlink" xml:space="preserve" xmlns:serif="http://www.serif.com/" style="fill-rule:evenodd;clip-rule:evenodd;stroke-miterlimit:1.5;">
    <rect id="card-background" x="0.281" y="0.825" width="60" height="27" style="fill:none;"/>
    <path d="M10.281,24.325L50.281,24.325" style="fill:none;stroke:#f00;stroke-width:1px;"/>
    <path d="M15.281,26.325L45.281,26.325" style="fill:none;stroke:#f00;stroke-width:1px;"/>
    <path d="M59.281,1.825L1.281,1.825L1.281,11.825C4.041,11.825 6.281,14.066 6.281,16.825L54.281,16.825C54.281,14.066 56.521,11.825 59.281,11.825L59.281,1.825Z" style="fill:#0f0;"/>
    <path d="M59.281,1.825L59.281,11.825C56.521,11.825 54.281,14.066 54.281,16.825L6.281,16.825C6.281,14.066 4.041,11.825 1.281,11.825L1.281,1.825L59.281,1.825ZM58.281,2.825L2.281,2.825L2.281,9.825C2.281,9.825 2.281,10.908 2.281,10.908C4.792,11.33 6.776,13.314 7.198,15.825L45.281,15.825C45.281,15.825 53.364,15.825 53.364,15.825C53.786,13.314 55.77,11.33 58.281,10.908L58.281,2.825Z" style="fill:#f00;"/>
    <rect x="4.781" y="1.825" width="51" height="21" style="fill:#00f;"/>
    <path d="M55.781,1.825L55.781,22.825L4.781,22.825L4.781,1.825L55.781,1.825ZM54.781,2.825L5.781,2.825C5.781,2.825 5.781,21.825 5.781,21.825L54.781,21.825L54.781,2.825Z" style="fill:#f00;"/>
</svg>
