<?xml version="1.0" encoding="UTF-8" standalone="no"?>
<!DOCTYPE svg PUBLIC "-//W3C//DTD SVG 1.1//EN" "http://www.w3.org/Graphics/SVG/1.1/DTD/svg11.dtd">
<svg width="100%" height="100%" viewBox="0 0 60 131" version="1.1" xmlns="http://www.w3.org/2000/svg" xmlns:xlink="http://www.w3.org/1999/xlink" xml:space="preserve" xmlns:serif="http://www.serif.com/" style="fill-rule:evenodd;clip-rule:evenodd;stroke-miterlimit:1.5;">
    <rect id="cha-border" x="0" y="0.825" width="60" height="130" style="fill:none;"/>
    <clipPath id="_clip1">
        <rect x="0" y="0.825" width="60" height="130"/>
    </clipPath>
    <g clip-path="url(#_clip1)">
        <g>
            <path d="M28.253,117.825L27.749,117.827C27.443,115.006 25.036,114.614 24.372,114.614C21.466,114.615 20.858,114.376 20.589,114.883C20.479,115.091 20.573,115.31 20.679,115.419C20.948,115.696 21.349,115.707 21.44,115.718L21.439,116.223C19.189,116.221 19.401,113.769 21.435,113.686C24.107,113.578 25.537,113.404 26.914,114.625C27.01,114.71 27.544,115.184 27.878,115.911C28.292,116.813 28.26,117.447 28.253,117.825Z" style="fill:#f00;"/>
            <path d="M32.251,117.827L31.747,117.825C31.705,115.52 33.249,113.615 35.963,113.616C38.902,113.618 39.197,113.774 39.444,113.904C40.499,114.461 40.53,116.221 38.561,116.223L38.56,115.718C39.801,115.569 39.66,114.58 38.681,114.545C38.344,114.533 37.894,114.615 35.628,114.614C34.964,114.614 32.557,115.006 32.251,117.827Z" style="fill:#f00;"/>
            <rect x="29.5" y="26.825" width="1" height="94.437" style="fill:#f00;"/>
            <path d="M30,118.825L28,122.825L30,126.825L32,122.825L30,118.825Z" style="fill:#f00;"/>
            <path d="M60,35.825C57.24,35.825 55,33.585 55,30.825L5,30.825C5,33.585 2.76,35.825 -0,35.825L-0,95.825C2.76,95.825 5,98.066 5,100.825L55,100.825C55,98.066 57.24,95.825 60,95.825L60,35.825Z" style="fill:#00f;"/>
            <clipPath id="_clip2">
                <path d="M60,35.825C57.24,35.825 55,33.585 55,30.825L5,30.825C5,33.585 2.76,35.825 -0,35.825L-0,95.825C2.76,95.825 5,98.066 5,100.825L55,100.825C55,98.066 57.24,95.825 60,95.825L60,35.825Z"/>
            </clipPath>
            <g clip-path="url(#_clip2)">
                <path d="M57,38.825L52,33.825L8,33.825L3,38.825L3,92.825L8,97.825L52,97.825L57,92.825L57,38.825Z" style="fill:#00f;"/>
                <path d="M57,38.825L57,92.825L52,97.825L8,97.825L3,92.825L3,38.825L8,33.825L52,33.825L57,38.825ZM56,39.239L51.586,34.825L8.414,34.825L4,39.239L4,92.411L8.414,96.825L51.586,96.825L56,92.411L56,39.239Z" style="fill:#f00;"/>
                <rect x="0.935" y="31.825" width="58.065" height="19" style="fill:#f00;"/>
                <clipPath id="_clip3">
                    <rect x="0.935" y="31.825" width="58.065" height="19"/>
                </clipPath>
                <g clip-path="url(#_clip3)">
                    <path d="M56.791,38.825L51.791,33.825L8.209,33.825L3.209,38.825L3.209,92.992L8.209,97.992L51.791,97.992L56.791,92.992L56.791,38.825Z" style="fill:#f00;"/>
                    <path d="M56.791,38.825L56.791,92.992L51.791,97.992L8.209,97.992L3.209,92.992L3.209,38.825L8.209,33.825L51.791,33.825L56.791,38.825ZM55.791,39.239L51.377,34.825L8.623,34.825L4.209,39.239L4.209,92.578L8.623,96.992L51.377,96.992L55.791,92.578L55.791,39.239Z" style="fill:#00f;"/>
                </g>
            </g>
            <path d="M60,35.825L60,95.825C57.24,95.825 55,98.066 55,100.825L5,100.825C5,98.066 2.76,95.825 -0,95.825L-0,35.825C2.76,35.825 5,33.585 5,30.825L55,30.825C55,33.585 57.24,35.825 60,35.825ZM58,37.535C55.744,36.862 53.963,35.081 53.29,32.825C53.29,32.825 6.71,32.825 6.71,32.825C6.037,35.081 4.256,36.862 2,37.535C2,37.535 2,94.115 2,94.115C4.256,94.788 6.037,96.569 6.71,98.825C6.71,98.825 53.29,98.825 53.29,98.825C53.963,96.569 55.744,94.788 58,94.115L58,37.535Z" style="fill:#f00;"/>
            <path d="M50,91.825C47.24,91.825 45,89.585 45,86.825L15,86.825C15,89.585 12.76,91.825 10,91.825L10,107.825C12.76,107.825 15,110.066 15,112.825L45,112.825C45,110.066 47.24,107.825 50,107.825L50,91.825Z" style="fill:#00f;"/>
            <clipPath id="_clip4">
                <path d="M50,91.825C47.24,91.825 45,89.585 45,86.825L15,86.825C15,89.585 12.76,91.825 10,91.825L10,107.825C12.76,107.825 15,110.066 15,112.825L45,112.825C45,110.066 47.24,107.825 50,107.825L50,91.825Z"/>
            </clipPath>
            <g clip-path="url(#_clip4)">
                <path d="M47,94.825L42,89.825L18,89.825L13,94.825L13,104.763L18,109.763L42,109.763L47,104.763L47,94.825Z" style="fill:#00f;"/>
                <path d="M47,94.825L47,104.763L42,109.763L18,109.763L13,104.763L13,94.825L18,89.825L42,89.825L47,94.825ZM46,95.239L41.586,90.825L18.414,90.825L14,95.239L14,104.349L18.414,108.763L41.586,108.763L46,104.349L46,95.239Z" style="fill:#f00;"/>
            </g>
            <path d="M50,91.825L50,107.825C47.24,107.825 45,110.066 45,112.825L15,112.825C15,110.066 12.76,107.825 10,107.825L10,91.825C12.76,91.825 15,89.585 15,86.825L45,86.825C45,89.585 47.24,91.825 50,91.825ZM48,93.535C45.744,92.862 43.963,91.081 43.29,88.825C43.29,88.825 16.71,88.825 16.71,88.825C16.037,91.081 14.256,92.862 12,93.535C12,93.535 12,106.115 12,106.115C14.256,106.788 16.037,108.569 16.71,110.825C16.71,110.825 43.29,110.825 43.29,110.825C43.963,108.569 45.744,106.788 48,106.115L48,93.535Z" style="fill:#f00;"/>
            <path d="M10.375,29.325L27.875,29.325" style="fill:none;stroke:#f00;stroke-width:1px;"/>
            <path d="M32.125,29.325L49.625,29.325" style="fill:none;stroke:#f00;stroke-width:1px;"/>
            <path d="M24.176,10.825C26.145,12.794 34.02,12.794 35.989,10.825L35.989,17.388C35.989,21.326 33.656,27.889 30.082,27.889C26.801,27.889 24.176,21.326 24.176,17.388L24.176,10.825ZM26.145,21.326C27.457,22.133 28.77,22.537 30.082,22.537C31.395,22.537 32.708,22.133 34.02,21.326C31.77,26.576 28.395,26.576 26.145,21.326ZM26.014,17.768C26.403,17.106 26.862,16.705 27.39,16.563C27.918,16.421 28.516,16.54 29.184,16.919C27.372,13.78 26.014,14.144 26.014,17.768ZM30.981,16.919C31.648,16.54 32.246,16.421 32.775,16.563C33.303,16.705 33.762,17.106 34.15,17.768C34.151,14.144 32.792,13.78 30.981,16.919Z" style="fill:#f00;"/>
        </g>
    </g>
</svg>
