<?xml version="1.0" encoding="UTF-8" standalone="no"?>
<!DOCTYPE svg PUBLIC "-//W3C//DTD SVG 1.1//EN" "http://www.w3.org/Graphics/SVG/1.1/DTD/svg11.dtd">
<svg width="100%" height="100%" viewBox="0 0 60 130" version="1.1" xmlns="http://www.w3.org/2000/svg" xmlns:xlink="http://www.w3.org/1999/xlink" xml:space="preserve" xmlns:serif="http://www.serif.com/" style="fill-rule:evenodd;clip-rule:evenodd;stroke-linejoin:round;stroke-miterlimit:2;">
    <rect id="con-border" x="0" y="-54.175" width="60.065" height="130" style="fill:none;"/>
    <clipPath id="_clip1">
        <rect x="0" y="-54.175" width="60.065" height="130"/>
    </clipPath>
    <g clip-path="url(#_clip1)">
        <g>
            <path d="M28.253,62.825L27.749,62.827C27.443,60.006 25.036,59.614 24.372,59.614C21.466,59.615 20.858,59.376 20.589,59.883C20.479,60.091 20.573,60.31 20.679,60.419C20.948,60.696 21.349,60.707 21.44,60.718L21.439,61.223C19.189,61.221 19.401,58.769 21.435,58.686C24.107,58.578 25.537,58.404 26.914,59.625C27.01,59.71 27.544,60.184 27.878,60.911C28.292,61.813 28.26,62.447 28.253,62.825Z" style="fill:#f00;"/>
            <path d="M32.251,62.827L31.747,62.825C31.705,60.52 33.249,58.615 35.963,58.616C38.902,58.618 39.197,58.774 39.444,58.904C40.499,59.461 40.53,61.221 38.561,61.223L38.56,60.718C39.801,60.569 39.66,59.58 38.681,59.545C38.344,59.533 37.894,59.615 35.628,59.614C34.964,59.614 32.557,60.006 32.251,62.827Z" style="fill:#f00;"/>
            <rect x="29.5" y="-29.83" width="1" height="96.093" style="fill:#f00;"/>
            <path d="M30,63.825L28,67.825L30,71.825L32,67.825L30,63.825Z" style="fill:#f00;"/>
            <path d="M60,-19.175C57.24,-19.175 55,-21.415 55,-24.175L5,-24.175C5,-21.415 2.76,-19.175 -0,-19.175L-0,40.825C2.76,40.825 5,43.066 5,45.825L55,45.825C55,43.066 57.24,40.825 60,40.825L60,-19.175Z" style="fill:#00f;"/>
            <clipPath id="_clip2">
                <path d="M60,-19.175C57.24,-19.175 55,-21.415 55,-24.175L5,-24.175C5,-21.415 2.76,-19.175 -0,-19.175L-0,40.825C2.76,40.825 5,43.066 5,45.825L55,45.825C55,43.066 57.24,40.825 60,40.825L60,-19.175Z"/>
            </clipPath>
            <g clip-path="url(#_clip2)">
                <path d="M57,-16.175L52,-21.175L8,-21.175L3,-16.175L3,37.825L8,42.825L52,42.825L57,37.825L57,-16.175Z" style="fill:#00f;"/>
                <path d="M57,-16.175L57,37.825L52,42.825L8,42.825L3,37.825L3,-16.175L8,-21.175L52,-21.175L57,-16.175ZM56,-15.761L51.586,-20.175L8.414,-20.175L4,-15.761L4,37.411L8.414,41.825L51.586,41.825L56,37.411L56,-15.761Z" style="fill:#f00;"/>
            </g>
            <path d="M60,-19.175L60,40.825C57.24,40.825 55,43.066 55,45.825L5,45.825C5,43.066 2.76,40.825 -0,40.825L-0,-19.175C2.76,-19.175 5,-21.415 5,-24.175L55,-24.175C55,-21.415 57.24,-19.175 60,-19.175ZM58,-17.465C55.744,-18.138 53.963,-19.919 53.29,-22.175C53.29,-22.175 6.71,-22.175 6.71,-22.175C6.037,-19.919 4.256,-18.138 2,-17.465C2,-17.465 2,39.115 2,39.115C4.256,39.788 6.037,41.569 6.71,43.825C6.71,43.825 53.29,43.825 53.29,43.825C53.963,41.569 55.744,39.788 58,39.115L58,-17.465Z" style="fill:#f00;"/>
            <path d="M50,36.825C47.24,36.825 45,34.585 45,31.825L15,31.825C15,34.585 12.76,36.825 10,36.825L10,52.825C12.76,52.825 15,55.066 15,57.825L45,57.825C45,55.066 47.24,52.825 50,52.825L50,36.825Z" style="fill:#00f;"/>
            <clipPath id="_clip3">
                <path d="M50,36.825C47.24,36.825 45,34.585 45,31.825L15,31.825C15,34.585 12.76,36.825 10,36.825L10,52.825C12.76,52.825 15,55.066 15,57.825L45,57.825C45,55.066 47.24,52.825 50,52.825L50,36.825Z"/>
            </clipPath>
            <g clip-path="url(#_clip3)">
                <path d="M47,39.825L42,34.825L18,34.825L13,39.825L13,49.763L18,54.763L42,54.763L47,49.763L47,39.825Z" style="fill:#00f;"/>
                <path d="M47,39.825L47,49.763L42,54.763L18,54.763L13,49.763L13,39.825L18,34.825L42,34.825L47,39.825ZM46,40.239L41.586,35.825L18.414,35.825L14,40.239L14,49.349L18.414,53.763L41.586,53.763L46,49.349L46,40.239Z" style="fill:#f00;"/>
            </g>
            <path d="M50,36.825L50,52.825C47.24,52.825 45,55.066 45,57.825L15,57.825C15,55.066 12.76,52.825 10,52.825L10,36.825C12.76,36.825 15,34.585 15,31.825L45,31.825C45,34.585 47.24,36.825 50,36.825ZM48,38.535C45.744,37.862 43.963,36.081 43.29,33.825C43.29,33.825 16.71,33.825 16.71,33.825C16.037,36.081 14.256,37.862 12,38.535C12,38.535 12,51.115 12,51.115C14.256,51.788 16.037,53.569 16.71,55.825C16.71,55.825 43.29,55.825 43.29,55.825C43.963,53.569 45.744,51.788 48,51.115L48,38.535Z" style="fill:#f00;"/>
        </g>
    </g>
</svg>
