<?xml version="1.0" encoding="UTF-8" standalone="no"?>
<!DOCTYPE svg PUBLIC "-//W3C//DTD SVG 1.1//EN" "http://www.w3.org/Graphics/SVG/1.1/DTD/svg11.dtd">
<svg width="100%" height="100%" viewBox="0 0 31 31" version="1.1" xmlns="http://www.w3.org/2000/svg" xmlns:xlink="http://www.w3.org/1999/xlink" xml:space="preserve" xmlns:serif="http://www.serif.com/" style="fill-rule:evenodd;clip-rule:evenodd;stroke-linejoin:round;stroke-miterlimit:2;">
    <rect id="panel-foreground" x="0.016" y="0.825" width="30" height="30" style="fill:none;"/>
    <path d="M29.016,6.825C26.256,6.825 24.016,4.585 24.016,1.825L6.016,1.825C6.016,4.585 3.776,6.825 1.016,6.825L1.016,24.825C3.776,24.825 6.016,27.066 6.016,29.825L24.016,29.825C24.016,27.066 26.256,24.825 29.016,24.825L29.016,6.825Z" style="fill:#00f;"/>
    <clipPath id="_clip1">
        <path d="M29.016,6.825C26.256,6.825 24.016,4.585 24.016,1.825L6.016,1.825C6.016,4.585 3.776,6.825 1.016,6.825L1.016,24.825C3.776,24.825 6.016,27.066 6.016,29.825L24.016,29.825C24.016,27.066 26.256,24.825 29.016,24.825L29.016,6.825Z"/>
    </clipPath>
    <g clip-path="url(#_clip1)">
        <path d="M26.016,9.825L21.016,4.825L8.963,4.825L4.016,9.825L4.016,21.825L9.016,26.825L21.069,26.825L26.016,21.878L26.016,9.825Z" style="fill:#0f0;"/>
        <path d="M26.016,9.825L26.016,21.878L21.069,26.825L9.016,26.825L4.016,21.825L4.016,9.825L8.963,4.825L21.016,4.825L26.016,9.825ZM25.016,10.239L20.602,5.825L9.381,5.825C9.381,5.825 5.016,10.236 5.016,10.236L5.016,21.411L9.43,25.825L20.654,25.825L25.016,21.463L25.016,10.239Z" style="fill:#f00;"/>
    </g>
    <path d="M29.016,6.825L29.016,24.825C26.256,24.825 24.016,27.066 24.016,29.825L6.016,29.825C6.016,27.066 3.776,24.825 1.016,24.825L1.016,6.825C3.776,6.825 6.016,4.585 6.016,1.825L24.016,1.825C24.016,4.585 26.256,6.825 29.016,6.825ZM27.016,8.535C24.76,7.862 22.979,6.081 22.306,3.825C22.306,3.825 7.726,3.825 7.726,3.825C7.053,6.081 5.272,7.862 3.016,8.535C3.016,8.535 3.016,23.115 3.016,23.115C5.272,23.788 7.053,25.569 7.726,27.825C7.726,27.825 22.306,27.825 22.306,27.825C22.979,25.569 24.76,23.788 27.016,23.115L27.016,8.535Z" style="fill:#f00;"/>
</svg>
