<?xml version="1.0" encoding="UTF-8" standalone="no"?>
<!DOCTYPE svg PUBLIC "-//W3C//DTD SVG 1.1//EN" "http://www.w3.org/Graphics/SVG/1.1/DTD/svg11.dtd">
<svg width="100%" height="100%" viewBox="0 0 30 31" version="1.1" xmlns="http://www.w3.org/2000/svg" xmlns:xlink="http://www.w3.org/1999/xlink" xml:space="preserve" xmlns:serif="http://www.serif.com/" style="fill-rule:evenodd;clip-rule:evenodd;stroke-linejoin:round;stroke-miterlimit:2;">
    <rect id="square-background" x="0" y="0.825" width="30" height="30" style="fill:none;"/>
    <path d="M29,6.825C26.24,6.825 24,4.585 24,1.825L6,1.825C6,4.585 3.76,6.825 1,6.825L1,24.825C3.76,24.825 6,27.066 6,29.825L24,29.825C24,27.066 26.24,24.825 29,24.825L29,6.825Z" style="fill:#0f0;"/>
    <clipPath id="_clip1">
        <path d="M29,6.825C26.24,6.825 24,4.585 24,1.825L6,1.825C6,4.585 3.76,6.825 1,6.825L1,24.825C3.76,24.825 6,27.066 6,29.825L24,29.825C24,27.066 26.24,24.825 29,24.825L29,6.825Z"/>
    </clipPath>
    <g clip-path="url(#_clip1)">
        <path d="M26,9.825L21,4.825L8.947,4.825L4,9.825L4,21.825L9,26.825L21.053,26.825L26,21.878L26,9.825Z" style="fill:#00f;"/>
        <path d="M26,9.825L26,21.878L21.053,26.825L9,26.825L4,21.825L4,9.825L8.947,4.825L21,4.825L26,9.825ZM25,10.239L20.586,5.825L9.365,5.825C9.365,5.825 5,10.236 5,10.236L5,21.411L9.414,25.825L20.638,25.825L25,21.463L25,10.239Z" style="fill:#f00;"/>
    </g>
    <path d="M29,6.825L29,24.825C26.24,24.825 24,27.066 24,29.825L6,29.825C6,27.066 3.76,24.825 1,24.825L1,6.825C3.76,6.825 6,4.585 6,1.825L24,1.825C24,4.585 26.24,6.825 29,6.825ZM27,8.535C24.744,7.862 22.963,6.081 22.29,3.825C22.29,3.825 7.71,3.825 7.71,3.825C7.037,6.081 5.256,7.862 3,8.535C3,8.535 3,23.115 3,23.115C5.256,23.788 7.037,25.569 7.71,27.825C7.71,27.825 22.29,27.825 22.29,27.825C22.963,25.569 24.744,23.788 27,23.115L27,8.535Z" style="fill:#f00;"/>
</svg>
