<?xml version="1.0" encoding="UTF-8" standalone="no"?>
<!DOCTYPE svg PUBLIC "-//W3C//DTD SVG 1.1//EN" "http://www.w3.org/Graphics/SVG/1.1/DTD/svg11.dtd">
<svg width="100%" height="100%" viewBox="0 0 181 80" version="1.1" xmlns="http://www.w3.org/2000/svg" xmlns:xlink="http://www.w3.org/1999/xlink" xml:space="preserve" xmlns:serif="http://www.serif.com/" style="fill-rule:evenodd;clip-rule:evenodd;stroke-linecap:square;stroke-miterlimit:1.5;">
    <rect id="title-border-foreground" x="0.281" y="0" width="180" height="80" style="fill:none;"/>
    <g>
        <path d="M175.095,54.814L166.609,51.985L163.781,43.5L172.266,46.328L175.095,54.814Z" style="fill:#f00;"/>
        <path d="M175.095,25.186L166.609,28.015L163.781,36.5L172.266,33.672L175.095,25.186Z" style="fill:#f00;"/>
        <path d="M140.281,40L145.281,35L155.281,45L158.281,42" style="fill:none;stroke:#f00;stroke-width:2px;"/>
        <path d="M152.281,38L155.281,35L165.281,45" style="fill:none;stroke:#f00;stroke-width:2px;"/>
        <path d="M165.281,35L162.281,38" style="fill:none;stroke:#f00;stroke-width:2px;"/>
        <path d="M140.281,40L145.281,45L148.281,42" style="fill:none;stroke:#f00;stroke-width:2px;"/>
    </g>
    <g>
        <path d="M5.467,25.186L13.953,28.015L16.781,36.5L8.296,33.672L5.467,25.186Z" style="fill:#f00;"/>
        <path d="M5.467,54.814L13.953,51.985L16.781,43.5L8.296,46.328L5.467,54.814Z" style="fill:#f00;"/>
        <path d="M40.281,40L35.281,45L25.281,35L22.281,38" style="fill:none;stroke:#f00;stroke-width:2px;"/>
        <path d="M28.281,42L25.281,45L15.281,35" style="fill:none;stroke:#f00;stroke-width:2px;"/>
        <path d="M15.281,45L18.281,42" style="fill:none;stroke:#f00;stroke-width:2px;"/>
        <path d="M40.281,40L35.281,35L32.281,38" style="fill:none;stroke:#f00;stroke-width:2px;"/>
    </g>
    <g>
        <path d="M40.281,39.946L77.281,76.996L103.281,77L140.281,40L103.281,3L77.281,3L40.281,39.946Z" style="fill:#00f;stroke:#ff0037;stroke-width:2px;stroke-linecap:butt;"/>
        <path d="M97.281,77L137.281,37" style="fill:none;stroke:#f00;stroke-width:1px;stroke-linecap:butt;"/>
        <path d="M43.281,43L83.281,3" style="fill:none;stroke:#f00;stroke-width:1px;stroke-linecap:butt;"/>
        <path d="M97.281,3L137.281,43" style="fill:none;stroke:#f00;stroke-width:1px;stroke-linecap:butt;"/>
        <path d="M43.281,37L83.281,77" style="fill:none;stroke:#f00;stroke-width:1px;stroke-linecap:butt;"/>
        <path d="M73.281,7L107.281,7" style="fill:none;stroke:#f00;stroke-width:1px;stroke-linecap:butt;"/>
        <path d="M73.281,73L107.281,73" style="fill:none;stroke:#f00;stroke-width:1px;stroke-linecap:butt;"/>
        <path d="M101.745,11.464C100.419,11.464 99.148,10.938 98.21,10L82.352,10C81.414,10.938 80.143,11.464 78.816,11.464C74.285,15.996 60.401,29.88 53.816,36.464C54.754,37.402 55.281,38.674 55.281,40C55.281,41.326 54.754,42.598 53.816,43.536C60.401,50.12 74.285,64.004 78.816,68.536C80.143,68.536 81.414,69.062 82.352,70L98.21,70C99.148,69.062 100.419,68.536 101.745,68.536C106.277,64.004 120.161,50.12 126.745,43.536C125.808,42.598 125.281,41.326 125.281,40C125.281,38.674 125.808,37.402 126.745,36.464C120.161,29.88 106.277,15.996 101.745,11.464Z" style="fill:#0f0;"/>
    </g>
</svg>
