<?xml version="1.0" encoding="UTF-8" standalone="no"?>
<!DOCTYPE svg PUBLIC "-//W3C//DTD SVG 1.1//EN" "http://www.w3.org/Graphics/SVG/1.1/DTD/svg11.dtd">
<svg width="100%" height="100%" viewBox="0 0 120 33" version="1.1" xmlns="http://www.w3.org/2000/svg" xmlns:xlink="http://www.w3.org/1999/xlink" xml:space="preserve" xmlns:serif="http://www.serif.com/" style="fill-rule:evenodd;clip-rule:evenodd;stroke-miterlimit:1.5;">
    <rect id="twotone-bar-foreground" x="-0" y="0.312" width="120" height="32" style="fill:none;"/>
    <path d="M110,1.312L10,1.312C10,1.312 5.958,5.354 2.071,9.241C3.946,11.116 5,13.66 5,16.312C5,18.964 3.946,21.508 2.071,23.383C5.958,27.27 10,31.312 10,31.312L110,31.312C110,31.312 114.042,27.27 117.929,23.383C116.054,21.508 115,18.964 115,16.312C115,13.66 116.054,11.116 117.929,9.241C114.042,5.354 110,1.312 110,1.312Z" style="fill:#0f0;"/>
    <clipPath id="_clip1">
        <path d="M110,1.312L10,1.312C10,1.312 5.958,5.354 2.071,9.241C3.946,11.116 5,13.66 5,16.312C5,18.964 3.946,21.508 2.071,23.383C5.958,27.27 10,31.312 10,31.312L110,31.312C110,31.312 114.042,27.27 117.929,23.383C116.054,21.508 115,18.964 115,16.312C115,13.66 116.054,11.116 117.929,9.241C114.042,5.354 110,1.312 110,1.312Z"/>
    </clipPath>
    <g clip-path="url(#_clip1)">
        <path d="M3,27.312L117,27.312" style="fill:none;stroke:#f00;stroke-width:1px;"/>
        <path d="M2,5.312L117,5.312" style="fill:none;stroke:#f00;stroke-width:1px;"/>
        <rect x="2" y="1.312" width="48" height="30" style="fill:#f00;"/>
        <clipPath id="_clip2">
            <rect x="2" y="1.312" width="48" height="30"/>
        </clipPath>
        <g clip-path="url(#_clip2)">
            <path d="M50,5.312L2.071,5.312" style="fill:none;stroke:#0f0;stroke-width:1px;"/>
            <path d="M50,27.312L2.071,27.312" style="fill:none;stroke:#0f0;stroke-width:1px;"/>
        </g>
        <rect x="69.929" y="1.312" width="48" height="30" style="fill:#f00;"/>
        <clipPath id="_clip3">
            <rect x="69.929" y="1.312" width="48" height="30"/>
        </clipPath>
        <g clip-path="url(#_clip3)">
            <path d="M117.929,5.312L70,5.312" style="fill:none;stroke:#0f0;stroke-width:1px;"/>
            <path d="M117.929,27.312L70,27.312" style="fill:none;stroke:#0f0;stroke-width:1px;"/>
        </g>
    </g>
    <path d="M110,1.312L117.929,9.241C116.054,11.116 115,13.66 115,16.312C115,18.964 116.054,21.508 117.929,23.383L110,31.312L10,31.312L2.071,23.383C3.946,21.508 5,18.964 5,16.312C5,13.66 3.946,11.116 2.071,9.241L10,1.312L110,1.312ZM109.536,2.432L10.464,2.432C10.464,2.432 3.615,9.281 3.615,9.281C5.228,11.257 6.12,13.738 6.12,16.312C6.12,18.886 5.228,21.367 3.615,23.343L10.464,30.192L109.536,30.192C109.536,30.192 116.385,23.343 116.385,23.343C114.772,21.367 113.88,18.886 113.88,16.312C113.88,13.738 114.772,11.257 116.385,9.281L109.536,2.432Z" style="fill:#f00;"/>
</svg>
