<?xml version="1.0" encoding="UTF-8" standalone="no"?>
<!DOCTYPE svg PUBLIC "-//W3C//DTD SVG 1.1//EN" "http://www.w3.org/Graphics/SVG/1.1/DTD/svg11.dtd">
<svg width="100%" height="100%" viewBox="0 0 120 33" version="1.1" xmlns="http://www.w3.org/2000/svg" xmlns:xlink="http://www.w3.org/1999/xlink" xml:space="preserve" xmlns:serif="http://www.serif.com/" style="fill-rule:evenodd;clip-rule:evenodd;stroke-miterlimit:1.5;">
    <rect id="twotone-bar-background" x="-0" y="0.436" width="120" height="32" style="fill:none;"/>
    <path d="M110,1.436L10,1.436C10,1.436 5.958,5.477 2.071,9.365C3.946,11.24 5,13.784 5,16.436C5,19.088 3.946,21.631 2.071,23.507C5.958,27.394 10,31.436 10,31.436L110,31.436C110,31.436 114.042,27.394 117.929,23.507C116.054,21.631 115,19.088 115,16.436C115,13.784 116.054,11.24 117.929,9.365C114.042,5.477 110,1.436 110,1.436Z" style="fill:#00f;"/>
    <clipPath id="_clip1">
        <path d="M110,1.436L10,1.436C10,1.436 5.958,5.477 2.071,9.365C3.946,11.24 5,13.784 5,16.436C5,19.088 3.946,21.631 2.071,23.507C5.958,27.394 10,31.436 10,31.436L110,31.436C110,31.436 114.042,27.394 117.929,23.507C116.054,21.631 115,19.088 115,16.436C115,13.784 116.054,11.24 117.929,9.365C114.042,5.477 110,1.436 110,1.436Z"/>
    </clipPath>
    <g clip-path="url(#_clip1)">
        <path d="M3,27.436L117,27.436" style="fill:none;stroke:#f00;stroke-width:1px;"/>
        <path d="M2,5.436L117,5.436" style="fill:none;stroke:#f00;stroke-width:1px;"/>
        <rect x="2" y="1.436" width="48" height="30" style="fill:#f00;"/>
        <clipPath id="_clip2">
            <rect x="2" y="1.436" width="48" height="30"/>
        </clipPath>
        <g clip-path="url(#_clip2)">
            <path d="M50,5.436L2.071,5.436" style="fill:none;stroke:#00f;stroke-width:1px;"/>
            <path d="M50,27.436L2.071,27.436" style="fill:none;stroke:#00f;stroke-width:1px;"/>
        </g>
        <rect x="69.929" y="1.436" width="48" height="30" style="fill:#f00;"/>
        <clipPath id="_clip3">
            <rect x="69.929" y="1.436" width="48" height="30"/>
        </clipPath>
        <g clip-path="url(#_clip3)">
            <path d="M117.929,5.436L70,5.436" style="fill:none;stroke:#00f;stroke-width:1px;"/>
            <path d="M117.929,27.436L70,27.436" style="fill:none;stroke:#00f;stroke-width:1px;"/>
        </g>
    </g>
    <path d="M110,1.436L117.929,9.365C116.054,11.24 115,13.784 115,16.436C115,19.088 116.054,21.631 117.929,23.507L110,31.436L10,31.436L2.071,23.507C3.946,21.631 5,19.088 5,16.436C5,13.784 3.946,11.24 2.071,9.365L10,1.436L110,1.436ZM109.536,2.555L10.464,2.555C10.464,2.555 3.615,9.405 3.615,9.405C5.228,11.381 6.12,13.862 6.12,16.436C6.12,19.009 5.228,21.491 3.615,23.467L10.464,30.316L109.536,30.316C109.536,30.316 116.385,23.467 116.385,23.467C114.772,21.491 113.88,19.009 113.88,16.436C113.88,13.862 114.772,11.381 116.385,9.405L109.536,2.555Z" style="fill:#f00;"/>
</svg>
